 <svg
	width="26px"
	height="18px"
	viewBox="0 0 18 18"
	version="1.1"
	xmlns="http://www.w3.org/2000/svg"
	xmlnsXlink="http://www.w3.org/1999/xlink"
	class="header-member-newsfeed__icon__svg"
>
	<title>newsfeed icon order</title>
	<defs>
		<path
			d="M9,2 C10.6568542,2 12,3.24365347 12,4.77777778 L12,5 L14,5 L14,16 L4,16 L4,5 L6,5 L6,4.77777778 C6,3.24365347 7.34314575,2 9,2 Z M7,6 L7,7.5 L6,7.5 L6,6 L5,6 L5,15 L13,15 L13,6 L12,6 L12,7.5 L11,7.5 L11,6.5 L11,6 L7,6 Z M9,3 C7.87897183,3 7,3.81386281 7,4.77777778 L7,5 L11,5 L11,4.77777778 C11,3.81386281 10.1210282,3 9,3 Z"
			id="path-1"
		></path>
	</defs>
	<g
		id="Ic/18/Line/Bag/Black"
		stroke="none"
		stroke-width="1"
		fill="none"
		fill-rule="evenodd"
	>
		<mask id="mask-2" fill="white">
			<use xlinkHref="#path-1"></use>
		</mask>
		<use
			id="Combined-Shape"
			fill="#777"
			fill-rule="nonzero"
			xlinkHref="#path-1"
		></use>
	</g>
</svg>