<svg
	width="18"
	height="17"
	viewBox="0 0 18 17"
	fill="none"
	xmlns="http://www.w3.org/2000/svg"
	class="login-input__button-text__loading"
	id="sendAuthCodeByMobileNumberButtonLoading"
>
	<title>로딩 중</title>
	<path
		fill-rule="evenodd"
		clip-rule="evenodd"
		d="M9 14.7C12.4242 14.7 15.2 11.9242 15.2 8.5H17.2C17.2 13.0287 13.5287 16.7 9 16.7V14.7Z"
		fill="url(#paint0_linear_loading-input__button-text__loading-tel)"
	></path>
	<path
		fill-rule="evenodd"
		clip-rule="evenodd"
		d="M8 1.29996C8 0.747672 8.44772 0.299957 9 0.299957C13.5287 0.299957 17.2 3.97122 17.2 8.49996H15.2C15.2 5.07579 12.4242 2.29996 9 2.29996C8.44772 2.29996 8 1.85224 8 1.29996Z"
		fill="url(#paint1_linear_loading-input__button-text__loading-tel)"
	></path>
	<path
		fill-rule="evenodd"
		clip-rule="evenodd"
		d="M6.0963 1.83387C6.38486 2.30478 6.23703 2.92044 5.76612 3.209C3.98492 4.30046 2.80017 6.26227 2.80017 8.4999C2.80017 11.9241 5.57601 14.6999 9.00017 14.6999V16.6999C4.47144 16.6999 0.800171 13.0286 0.800171 8.4999C0.800171 5.53778 2.37144 2.94352 4.72117 1.50369C5.19208 1.21513 5.80775 1.36296 6.0963 1.83387Z"
		fill="url(#paint2_linear_loading-input__button-text__loading-tel)"
	></path>
	<defs>
		<linearGradient
			id="paint0_linear_loading-input__button-text__loading-tel"
			x1="9"
			y1="14.9"
			x2="15.4"
			y2="8.5"
			gradientUnits="userSpaceOnUse"
		>
			<stop stop-opacity="0.5"></stop>
			<stop offset="1" stop-opacity="0.25"></stop>
		</linearGradient>
		<linearGradient
			id="paint1_linear_loading-input__button-text__loading-tel"
			x1="15"
			y1="6.89996"
			x2="6.2"
			y2="2.89996"
			gradientUnits="userSpaceOnUse"
		>
			<stop stop-opacity="0.25"></stop>
			<stop offset="1" stop-opacity="0"></stop>
		</linearGradient>
		<linearGradient
			id="paint2_linear_loading-input__button-text__loading-tel"
			x1="9.00017"
			y1="14.9001"
			x2="7.00017"
			y2="1.3001"
			gradientUnits="userSpaceOnUse"
		>
			<stop stop-opacity="0.5"></stop>
			<stop offset="1"></stop>
		</linearGradient>
	</defs>
</svg>